<svg preserveAspectRatio="none" width="100%" height="100%" overflow="visible" style="display: block;" viewBox="0 0 27 27" fill="none" xmlns="http://www.w3.org/2000/svg">
<g id="Frame">
<path id="Vector" d="M9.13646 11.1135L11.4799 13.4569L11.4869 13.45L13.121 15.084L13.1279 15.091L15.5145 17.4775C17.7112 19.6742 21.2727 19.6742 23.4694 17.4775C25.6662 15.2808 25.6662 11.7193 23.4694 9.52255C21.2727 7.32584 17.7112 7.32584 15.5145 9.52255L14.7119 10.3251L16.3029 11.9161L17.1055 11.1135C18.4234 9.79552 20.5604 9.79552 21.8784 11.1135C23.1965 12.4316 23.1965 14.5684 21.8784 15.8865C20.5604 17.2045 18.4234 17.2045 17.1055 15.8865L14.7741 13.5553L14.7671 13.5623L10.7274 9.52255C8.53075 7.32584 4.9692 7.32584 2.7725 9.52255C0.575797 11.7193 0.575797 15.2808 2.7725 17.4775C4.9692 19.6742 8.53075 19.6742 10.7274 17.4775L11.5299 16.675L9.93893 15.084L9.13646 15.8865C7.81844 17.2045 5.6815 17.2045 4.36349 15.8865C3.04547 14.5684 3.04547 12.4316 4.36349 11.1135C5.6815 9.79552 7.81844 9.79552 9.13646 11.1135Z" fill="var(--fill-0, white)"/>
</g>
</svg>
